<?xml version="1.0" encoding="UTF-8" standalone="no"?>
<!DOCTYPE svg PUBLIC "-//W3C//DTD SVG 1.1//EN"
 "http://www.w3.org/Graphics/SVG/1.1/DTD/svg11.dtd">
<!-- Generated by graphviz version 2.30.1 (20130318.1259)
 -->
<!-- Title: g Pages: 1 -->
<svg width="192pt" height="148pt"
 viewBox="0.00 0.00 192.45 148.00" xmlns="http://www.w3.org/2000/svg" xmlns:xlink="http://www.w3.org/1999/xlink">
<g id="graph0" class="graph" transform="scale(1 1) rotate(0) translate(4 144)">
<title>g</title>
<polygon fill="white" stroke="white" points="-4,5 -4,-144 189.453,-144 189.453,5 -4,5"/>
<!-- N0 -->
<g id="node1" class="node"><title>N0</title>
<path fill="#ffffff" stroke="#2e3436" stroke-width="1.5" d="M12,-100.694C12,-100.694 42,-100.694 42,-100.694 48,-100.694 54,-106.694 54,-112.694 54,-112.694 54,-127.306 54,-127.306 54,-133.306 48,-139.306 42,-139.306 42,-139.306 12,-139.306 12,-139.306 6,-139.306 0,-133.306 0,-127.306 0,-127.306 0,-112.694 0,-112.694 0,-106.694 6,-100.694 12,-100.694"/>
<text text-anchor="middle" x="26.7891" y="-127.306" font-family="FreeSans" font-size="8.00" fill="#1c2021">Node[0]</text>
<polyline fill="none" stroke="#2e3436" stroke-width="1.5" points="0,-120 53.5781,-120 "/>
<text text-anchor="middle" x="26.7891" y="-108" font-family="FreeSans" font-size="8.00" fill="#1c2021"> </text>
</g>
<!-- N1 -->
<g id="node2" class="node"><title>N1</title>
<path fill="#ffffff" stroke="#2e3436" stroke-width="1.5" d="M95.1895,-100.694C95.1895,-100.694 148.811,-100.694 148.811,-100.694 154.811,-100.694 160.811,-106.694 160.811,-112.694 160.811,-112.694 160.811,-127.306 160.811,-127.306 160.811,-133.306 154.811,-139.306 148.811,-139.306 148.811,-139.306 95.1895,-139.306 95.1895,-139.306 89.1895,-139.306 83.1895,-133.306 83.1895,-127.306 83.1895,-127.306 83.1895,-112.694 83.1895,-112.694 83.1895,-106.694 89.1895,-100.694 95.1895,-100.694"/>
<text text-anchor="middle" x="122" y="-127.306" font-family="FreeSans" font-size="8.00" fill="#1c2021">Node[1]</text>
<polyline fill="none" stroke="#2e3436" stroke-width="1.5" points="83.1895,-120 160.811,-120 "/>
<text text-anchor="start" x="91.1895" y="-108" font-family="FreeSans" font-size="8.00" fill="#1c2021">name = &#39;doctor&#39;</text>
</g>
<!-- N2 -->
<g id="node3" class="node"><title>N2</title>
<path fill="#ffffff" stroke="#2e3436" stroke-width="1.5" d="M97.3535,-0.69375C97.3535,-0.69375 146.646,-0.69375 146.646,-0.69375 152.646,-0.69375 158.646,-6.69375 158.646,-12.6938 158.646,-12.6938 158.646,-27.3063 158.646,-27.3063 158.646,-33.3062 152.646,-39.3062 146.646,-39.3062 146.646,-39.3062 97.3535,-39.3062 97.3535,-39.3062 91.3535,-39.3062 85.3535,-33.3062 85.3535,-27.3062 85.3535,-27.3062 85.3535,-12.6937 85.3535,-12.6937 85.3535,-6.69375 91.3535,-0.69375 97.3535,-0.69375"/>
<text text-anchor="middle" x="122" y="-27.3062" font-family="FreeSans" font-size="8.00" fill="#1c2021">Node[2]</text>
<polyline fill="none" stroke="#2e3436" stroke-width="1.5" points="85.3535,-20 158.646,-20 "/>
<text text-anchor="start" x="93.3535" y="-8" font-family="FreeSans" font-size="8.00" fill="#1c2021">name = &#39;dalek&#39;</text>
</g>
<!-- N1&#45;&gt;N2 -->
<g id="edge1" class="edge"><title>N1&#45;&gt;N2</title>
<path fill="none" stroke="#2e3436" stroke-width="2" d="M122,-100.567C122,-85.51 122,-64.0416 122,-47.1988"/>
<polygon fill="#2e3436" stroke="#2e3436" points="122,-39.3504 125.375,-46.8504 122.5,-43.1004 122.5,-46.8504 122,-46.8504 121.5,-46.8504 121.5,-43.1004 118.625,-46.8504 122,-39.3504 122,-39.3504"/>
<text text-anchor="middle" x="153.227" y="-73.3063" font-family="FreeSans" font-size="8.00" fill="#2e3436">ENEMY_OF</text>
<text text-anchor="start" x="122" y="-62" font-family="FreeSans" font-size="8.00" fill="#2e3436">since = &#39;forever&#39;</text>
</g>
</g>
</svg>
